<?xml version="1.0" encoding="iso-8859-1"?>
<!-- Generator: Adobe Illustrator 19.0.0, SVG Export Plug-In . SVG Version: 6.00 Build 0)  -->
<svg version="1.1" id="Layer_1" xmlns="http://www.w3.org/2000/svg" xmlns:xlink="http://www.w3.org/1999/xlink" x="0px" y="0px"
	 viewBox="0 0 300 300" style="enable-background:new 0 0 300 300;" xml:space="preserve">
<g>
	<g>
		<g>
			<path d="M299.206,247.282l-23.55-113.821c-2.598-12.556-12.135-22.239-24.044-25.616v-6.232c0-8.003-6.513-14.516-14.516-14.516
				h-24.194c-8.003,0-14.516,6.513-14.516,14.516v4.839h-0.953c-7.084,0-13.66,3.518-17.589,9.411
				c-2.129,3.198-5.695,5.105-9.537,5.105h-0.953v-4.839c0-8.003-6.513-14.516-14.516-14.516v-4.839h4.839v-9.677h-4.839v-4.839
				h4.839v-9.677h-4.839v-4.839h4.839v-9.677h-4.839V0h-9.677v58.065h-4.839v9.677h4.839v4.839h-4.839v9.677h4.839v4.839h-4.839
				v9.677h4.839v4.839c-8.003,0-14.516,6.513-14.516,14.516v4.839h-0.953c-3.842,0-7.403-1.906-9.537-5.105
				c-3.929-5.894-10.5-9.411-17.589-9.411h-0.953v-4.839c0-8.003-6.513-14.516-14.516-14.516H62.903
				c-8.003,0-14.516,6.513-14.516,14.516v6.227c-11.908,3.377-21.445,13.06-24.044,25.616L0.794,247.282
				C0.266,249.827,0,252.431,0,255.034v6.702C0,282.832,17.168,300,38.265,300c7.577,0,14.918-2.221,21.227-6.426l40.006-26.671
				c15.005-10.002,32.468-15.29,50.502-15.29s35.497,5.289,50.506,15.29l40.481,26.985c5.99,3.997,12.963,6.111,20.168,6.111h0.523
				C282.808,300,300,282.823,300,261.711v-6.692C300,252.426,299.734,249.827,299.206,247.282z M212.904,96.774h24.194
				c2.666,0,4.839,2.173,4.839,4.839v4.839h-33.871v-4.839h-0.001C208.065,98.947,210.238,96.774,212.904,96.774z M140.323,116.129
				c0-2.666,2.173-4.839,4.839-4.839h9.677c2.666,0,4.839,2.173,4.839,4.839v4.839h-19.355V116.129z M58.065,101.613
				c0-2.666,2.173-4.839,4.839-4.839h24.194c2.666,0,4.839,2.173,4.839,4.839v4.839H58.065V101.613z M53.225,286.03
				c-4.51,2.777-9.644,4.292-14.961,4.292C22.5,290.323,9.677,277.5,9.677,261.735v-6.702c0-1.94,0.198-3.89,0.595-5.792
				l10.413-50.318c18.411,2.971,32.54,18.929,32.54,38.173V286.03z M237.095,237.096v42.571l-31.224-20.816
				c-16.6-11.066-35.916-16.916-55.871-16.916s-39.271,5.85-55.873,16.916l-31.224,20.816v-42.571
				c0-23.908-17.444-43.766-40.258-47.652l11.177-54.029c2.308-11.173,12.271-19.287,23.69-19.287h44.1h0.953
				c3.842,0,7.403,1.906,9.537,5.105c3.929,5.894,10.5,9.411,17.589,9.411h0.953h38.71h0.953c7.084,0,13.66-3.518,17.589-9.411
				c2.129-3.198,5.695-5.105,9.537-5.105h0.953h44.1c11.415,0,21.377,8.115,23.69,19.292l11.177,54.029
				C254.538,193.33,237.095,213.188,237.095,237.096z M261.678,290.322h-0.523c-5.124,0-10.074-1.485-14.381-4.244v-48.982
				c0-19.244,14.129-35.202,32.545-38.173l10.413,50.318c0.392,1.902,0.59,3.842,0.59,5.777v6.693h0.001
				C290.323,277.485,277.471,290.322,261.678,290.322z"/>
			<path d="M96.774,154.839c0-16.011-13.021-29.032-29.032-29.032s-29.032,13.02-29.032,29.032s13.021,29.032,29.032,29.032
				S96.774,170.85,96.774,154.839z M67.742,174.194c-10.674,0-19.355-8.681-19.355-19.355s8.681-19.355,19.355-19.355
				s19.355,8.681,19.355,19.355S78.416,174.194,67.742,174.194z"/>
			<path d="M106.452,183.871c-16.011,0-29.032,13.021-29.032,29.032c0,16.011,13.021,29.032,29.032,29.032
				s29.032-13.021,29.032-29.032C135.484,196.892,122.463,183.871,106.452,183.871z M125.095,207.992
				c-7.427-0.368-13.369-6.305-13.737-13.737C118.069,196.031,123.324,201.285,125.095,207.992z M101.54,194.26
				c-0.368,7.427-6.305,13.369-13.737,13.737C89.579,201.285,94.834,196.031,101.54,194.26z M87.808,217.815
				c7.427,0.368,13.369,6.305,13.737,13.737C94.834,229.776,89.579,224.521,87.808,217.815z M106.452,217.892
				c-1.413-1.902-3.087-3.576-4.989-4.989c1.902-1.413,3.576-3.087,4.989-4.989c1.413,1.902,3.087,3.576,4.989,4.989
				C109.539,214.316,107.865,215.99,106.452,217.892z M111.363,231.547c0.368-7.427,6.305-13.369,13.737-13.737
				C123.324,224.521,118.069,229.776,111.363,231.547z"/>
			<path d="M193.548,183.871c-16.011,0-29.032,13.021-29.032,29.032c0,16.011,13.021,29.032,29.032,29.032
				c16.011,0,29.032-13.021,29.032-29.032C222.58,196.892,209.56,183.871,193.548,183.871z M193.548,232.258
				c-10.674,0-19.355-8.681-19.355-19.355c0-10.674,8.681-19.355,19.355-19.355c10.674,0,19.355,8.681,19.355,19.355
				C212.903,223.577,204.223,232.258,193.548,232.258z"/>
			<path d="M210.484,171.774c6.668,0,12.097-5.429,12.097-12.097c0-6.668-5.429-12.097-12.097-12.097
				c-6.668,0-12.097,5.429-12.097,12.097C198.387,166.345,203.816,171.774,210.484,171.774z M210.484,157.258
				c1.335,0,2.419,1.084,2.419,2.419s-1.084,2.419-2.419,2.419s-2.419-1.084-2.419-2.419S209.148,157.258,210.484,157.258z"/>
			<path d="M266.129,159.677c0-6.668-5.429-12.097-12.097-12.097c-6.668,0-12.097,5.429-12.097,12.097
				c0,6.668,5.43,12.097,12.097,12.097C260.7,171.774,266.129,166.345,266.129,159.677z M251.613,159.677
				c0-1.335,1.084-2.419,2.419-2.419c1.335,0,2.419,1.084,2.419,2.419s-1.084,2.419-2.419,2.419S251.613,161.012,251.613,159.677z"
				/>
			<path d="M232.258,169.355c-6.668,0-12.097,5.429-12.097,12.097c0,6.668,5.429,12.097,12.097,12.097
				c6.668-0.001,12.097-5.43,12.097-12.097C244.355,174.784,238.926,169.355,232.258,169.355z M232.258,183.871
				c-1.335,0-2.419-1.084-2.419-2.419c0-1.335,1.084-2.419,2.419-2.419c1.335,0,2.419,1.084,2.419,2.419
				C234.677,182.787,233.593,183.871,232.258,183.871z"/>
			<path d="M232.258,150c6.668,0,12.097-5.429,12.097-12.097c0-6.668-5.429-12.097-12.097-12.097
				c-6.668,0-12.097,5.429-12.097,12.097C220.161,144.571,225.59,150,232.258,150z M232.258,135.484
				c1.335,0,2.419,1.084,2.419,2.419c0,1.335-1.084,2.419-2.419,2.419s-2.419-1.084-2.419-2.419
				C229.839,136.568,230.923,135.484,232.258,135.484z"/>
		</g>
	</g>
</g>
<g>
</g>
<g>
</g>
<g>
</g>
<g>
</g>
<g>
</g>
<g>
</g>
<g>
</g>
<g>
</g>
<g>
</g>
<g>
</g>
<g>
</g>
<g>
</g>
<g>
</g>
<g>
</g>
<g>
</g>
</svg>
